<svg width="43" height="32" viewBox="0 0 43 32" fill="none" xmlns="http://www.w3.org/2000/svg">
<path fill-rule="evenodd" clip-rule="evenodd" d="M40.1781 4.49067L23.2119 18.432C22.7298 18.8283 22.1234 19.0452 21.4973 19.0452C20.8712 19.0452 20.2648 18.8283 19.7827 18.432L2.82456 4.49067C2.73357 4.76243 2.68729 5.04696 2.6875 5.33333V26.6667C2.6875 27.3739 2.97065 28.0522 3.47465 28.5523C3.97865 29.0524 4.66223 29.3333 5.375 29.3333H37.625C38.3378 29.3333 39.0213 29.0524 39.5253 28.5523C40.0294 28.0522 40.3125 27.3739 40.3125 26.6667V5.33333C40.3136 5.04711 40.2682 4.76258 40.1781 4.49067ZM5.375 0H37.625C39.0505 0 40.4177 0.561903 41.4257 1.5621C42.4337 2.56229 43 3.91885 43 5.33333V26.6667C43 28.0812 42.4337 29.4377 41.4257 30.4379C40.4177 31.4381 39.0505 32 37.625 32H5.375C3.94946 32 2.58231 31.4381 1.5743 30.4379C0.566293 29.4377 0 28.0812 0 26.6667V5.33333C0 3.91885 0.566293 2.56229 1.5743 1.5621C2.58231 0.561903 3.94946 0 5.375 0ZM4.81063 2.66667L19.7961 14.9413C20.2761 15.3347 20.8788 15.5505 21.5012 15.552C22.1237 15.5534 22.7274 15.3404 23.2092 14.9493L38.3452 2.66667H4.81063Z" fill="black"/>
</svg>
